<?xml version="1.0" encoding="UTF-8"?>
<svg version="1.1" viewBox="0 0 1024 1024" width="1280" height="1280" xmlns="http://www.w3.org/2000/svg">
<path transform="translate(0)" d="m0 0h1024v1024h-1024z" fill="#DBF8D8"/>
<path transform="translate(510,200)" d="m0 0h36l20 4 12 4 2 2v6l-10 5-12 5-11 7 24 3 16 5 12 5 10 6 1 2v6l-7 3-17 3-13 4-2 1 21 4 20 8 14 8 4 4v6l-2 2-23 3-10 4-6 5h31l15 3 5 3-1 7-3 5 19 1 7 2 2 2v6l-8 13-2 3 21-3h10l11 2 4 3v6l-11 15h29l9 2 5 3 1 5-4 5-8 7-2 2 23 3 18 6 9 5 1 1v6l-9 4-17 7 18 6 17 9 5 4 2 3-1 5-9 3-12 3h-4v2l6 1 14 8 10 8 7 8 2 7 1 2v6l-10 4 12 11 1 7v4l7 8 2 4 8 6 5 8 22 63 19 55 14 40v10l-3 6-6 5-3 1-32 1-8 1-4 2v2h-2l-2 5-7 10-8 10-9 10-8 7-10 9-20 13-24 12-21 8-29 8-25 5-30 4-24 2-21 1h-71l-49-3-37-4-45-7-29-6-30-8-36-12-28-11-30-13-31-14-16-8-29-14-5-5-3-4-1-3v-12l2-7 1-153 4-10 7-8 8-4 5-1h56l5 2 5-12 7-8 3-3h2v-10l4-13 7-11 9-8 13-6 6-1h16l13 4 10 6 8 8 2 5 5-5 11-12 12-10 5-5-5-1-5-5-5-10-1-7-5 2h-6l-7-9-3-8-1-9-5 2-5-1-8-9-4-9-2-14-10-12-8-14-5-16-3-20v-18l3-15 5-10 9-10 11-7 12-4 9-17 11-12 9-7 12-6 13-3h24l13 3 6 2 13-4 5-1h19l11-7 12-6 20-6z" fill="#033B29"/>
<path transform="translate(594,737)" d="m0 0 46 1 11 2 8 3 49 1h45l7-1 4-4 10 1 21 4-2 6-12 13-6 7-11 9-14 10-21 11-20 8-18 6-27 6-36 5-39 3-45 1-38-1-42-3-21-2-38-5-24-4-39-9-31-9-41-15-27-12-12-5-33-16-6-3v-3h35l65 5 22 1h58l59-3 61-4 36-2z" fill="#08AF0C"/>
<path transform="translate(436,242)" d="m0 0h22l10 3 10 5 16 13 10 9 8 7 12 11 8 7 32 32 7 8 2 4h2l5 6 8 7 11 10 8 7 15 13 18 13 17 11 10 7 18 13 11 9 14 12 11 11 8 10 10 13 10 15 10 17 11 21 5 13v3h-5l-4-9-10-19-11-17-12-16-13-15-8-8-10-8-8-8-11-7-11-6-7-2-2-5-5-1-18-5-12-2h-6l-2 2v-3l-21 5-4 2 8 7v2l-22 5-13 4v-8l1-1-1-16-5-23-7-19-9-17-14-19-4-5-4-13-5-8-8-7-14-7 8 8 8 15 1 5v17l-4 9 6 2v2l4 1 5 8 3 9v15l-1 2-5-2-10-7-9-3-12-1-12 3-9 6-7 7-6 10h-12l-9-2-4-4v-8l4-6 8-7 15-8 9-3-16 2-11 4-10 6-11-3-24-7-27-10-22-10-12-5-12-3-14-1v8l-3-4-3-10v-7h5 3l16 1 7 1 47 7 17 3 33 6 29 5 29 8 6 3 1-1-8-9-11-8-14-8-9-3 9 6 8 5v2l-18-4-42-8-50-9-38-5-21-2v-10l4-13 8-9 12-7 16-8 18-10 9-6 7-3 10-6 2 1-7 8-5 7-6 12v7l8-1 9-12 8-10 9-8 14-8 12-4z" fill="#97D906"/>
<path transform="translate(667,579)" d="m0 0h34l1 1v139l-2 1h-26l-5-5-16-21-9-12-14-19-10-13-4-5v-2h-2v75l-2 2h-32l-2-1-1-4v-99l1-6 16 8 3 3 2 3 7-10 3-8v-24l5 5 12 14 10 13 22 28 7 9 1-69z" fill="#F9FDFA"/>
<path transform="translate(296,577)" d="m0 0h23l15 4 16 8 4 3-2 5-10 11-9 11-4 3-6-5-9-3h-13l-9 3-9 7-6 10-2 6-1 13 3 12 5 8 8 7 13 4 13-1 11-4 1-15h-23l-3-1-1-3v-20l1-2h61l1 1v60l-15 10-12 6-12 4-5 1h-26l-14-4-15-8-12-11-9-13-5-12-3-13v-19l3-14 6-14 8-11 10-10 11-7 12-5z" fill="#F9FDFA"/>
<path transform="translate(382,579)" d="m0 0h36l1 4 1 87 5 9 6 3 7 1 9-3 5-5 2-6 1-89 1-1h36l1 1v95l-4 13-6 10-9 10-13 8-15 4h-18l-12-3-12-6-11-10-7-11-4-10-1-5v-95z" fill="#F9FDFA"/>
<path transform="translate(762,578)" d="m0 0h31l3 1 7 18 15 43 12 34 14 40 1 4-2 2h-33l-5-12-3-12-48 1-7 20-2 3h-33l1-8 15-44 10-28 14-40 7-19z" fill="#F9FDFA"/>
<path transform="translate(620,447)" d="m0 0 20 1 19 4 14 6 2 3-9-2 5 11v16l-5 17-7 15-9 15-9 12-9 8-10 5-3-1v-2l-6 3-11 3-6 4-4 6-1 10 3 14v6l-4 2-4-2-7-8-4-10v-15l4-8 4-5 11-6 15-2-7-3h-15l-9 4-6 8-4 5-11 7-4 5-3 7-2 12-9 8h-2l-1 2-2-10v-8l3-13 5-9 4-5 11-8 4-5 1-3-5-2-8-4-8-1-10 2-6 4-5 3 2-5 8-7 9-4h11l10 3 10 6 7 1 10-3 10-21 10-13 8-8 14-9 18-7 10-1v-2l-6-1h-18l-12 3-17 7-8 2-17 2h-19l-14-3-2-1 2-4 5-5 15-11 14-7 15-5 11-2z" fill="#97D906"/>
<path transform="translate(512,740)" d="m0 0h16v1l-30 3-3 1-1 2-23 2 11 9 4 3 5 1 8 7 9 5v5l-11 7-7 4-21 1h-37l-32-2-31-3-37-6-28-6-34-10-36-12-8-3-14-5 1-2h14l65 5 22 1h58l59-3 61-4z" fill="#97D906"/>
<path transform="translate(310,346)" d="m0 0h14l15 4 36 16 28 10 27 8 5-2 14-7 16-3h7l-3 2-13 5-11 6-9 8-2 4v8l5 4 7 1h13l-1 6v14l4 13 8 11 9 7 7 3 10 2-1 6-9 31-6 25-1 2h-2l-15-32-6-10-6-11-12-19-7-10-9-12-11-13-10-11-2-1v-2l-4-2-3-2v-2l-4-2-16-10-17-8-19-7-16-4v-2l-4-2-7-14z" fill="#08B00C"/>
<path transform="translate(529,340)" d="m0 0 5 5 12 16 6 10 8 17 6 20 3 15 1 16-1 1-1 9-13 9-7 7-3 5v6l-1 2 2 1-2 3 16 3h19l17-2h6l-3 5-5 4-9 12-7 14-4-2-11-5-11-3h-13l-9 2-12 5-4 3h-2v2l-8 7-5 6-4 6h-4l2-15 5-20 6-15 5-9h2l2-5 2-3h2l2-4 8-8 1-2h2l2-4 5-9 4-13 2-20v-20l-3-16-6-15-6-9-1-4z" fill="#018E2B"/>
<path transform="translate(617,738)" d="m0 0h23l11 2 8 3 49 1h45l7-1 4-4 10 1 21 4-2 6-12 13-6 7-3 1 1-4-5-3-10-2-11-1h-40l-27 3-16 3-10 4-14 6-19 4-12 2-36 5-14 1-36-1 5-4 12-6 25-7 27-10 18-7 20-8 2-6-15-1z" fill="#018F2C"/>
<path transform="translate(878,737)" d="m0 0h1v8l-4 6-5 3-4 1-28 1h-15l-2 5-7 12-4 6h-2l-2 4-9 10-11 11h-2v2l-11 8-18 11-14 7-16 7-28 9-21 5-40 6-17 2-35 2h-72l-49-3-38-4-38-6-31-6-30-8-22-7-24-8-15-6-29-12-17-8-18-8-15-7-17-8-9-4-10-5-1-3h-2l-2-8 2-3 3 3v2l5 2 39 19 28 13 25 11 27 11 36 13 24 7 32 8 34 6 35 5 29 3 49 3h71l34-2 27-3 30-5 28-7 24-8 29-14 16-10 13-10 7-6 5-5 10-11 10-14 5-8h2v-2l4-3 8-1 32-1 6-3z" fill="#B2E4C1"/>
<path transform="translate(442,259)" d="m0 0h16l11 4 8 7 5 7h-3l-9-6-5-2h-4l9 14 2 8v11l-3 10-5 9-5 4-14 5h-11l-11-4-6-3-1-2-16-4h-27l5-5 12-6 8-3 4-15 8-12 11-9 10-5z" fill="#023F29"/>
<path transform="translate(520,576)" d="m0 0h1l1 18 4 16 9 16v2h3l2-5 6-11 7-7h1l1 43v69l-2 3h-34l-2-3v-131z" fill="#F8FDF9"/>
<path transform="translate(436,242)" d="m0 0h22l10 3 10 5 16 13 10 9 8 7 12 11 8 7 32 32 7 8 2 4h2l5 6 8 7 11 10 8 7 15 13 18 13 17 11 10 7 18 13 11 9 14 12 11 11 8 10 10 13 10 15 10 17 11 21 5 13v3h-5l-4-9-10-19-11-17-12-16-13-15-8-8-10-8-8-8-11-7v-2l-5-2-13-9-9-6-14-10-13-9-3 6-3 8h-1v-22l-3-7-11-8-7-8-16-15-13-18-14-15-23-23-8-7-11-10-8-7-15-13-14-12-9-6-6-2h-20l-15 4-16 8-12 9-13 12-7 5v-3l7-10 8-10 9-8 14-8 12-4z" fill="#F6FCF8"/>
<path transform="translate(180,618)" d="m0 0h34l2 4v95l-3 3h-33l-2-2v-97z" fill="#F7FCF8"/>
<path transform="translate(666,459)" d="m0 0 7 1 5 2 9 8 5 10 1 4v16l-5 16-6 11-8 12-9 11-6 7-11 9-10 6-4 1h-10l-7-5-2-5 1-7 3-1 1 2 9-3 9-7 7-8 10-16 8-16 5-13 2-8v-16l-4-8z" fill="#09AE0E"/>
<path transform="translate(311,351)" d="m0 0 1 2 4 2 20 12 16 6v2l6 1 12 5 16 8 14 8 5 3 3 2v2l4 2 10 9 3 3v2h2l6 8 7 10 10 14 11 12 9 14 7 12v2h2l4 8 3-1-1 8-5 21-1 2h-2l-15-32-6-10-6-11-12-19-7-10-9-12-11-13-10-11-2-1v-2l-4-2-3-2v-2l-4-2-16-10-17-8-19-7-16-4v-2l-4-2-7-14z" fill="#018F2C"/>
<path transform="translate(375,498)" d="m0 0v3l-2 4v7l5 18-1 5-16 3-15 1-11-3 4 9v10l-4 10-5 5h-2l-2 4-2-1 3-14v-14l-5-9-1-3-3-1-6-9-5-2h-11l-7 6-5 12-2 5h-4l-4-10v-16l4-9 9-6 2-1h14l10 5 9 9 4 5 5 3 9 1 10-4 4-2 2-4 15-14z" fill="#97D906"/>
<path transform="translate(492,397)" d="m0 0h10l10 4 5 5 4 5 4 11v8l-3 10-7 8-8 4-4 1h-9l-9-3-9-8-4-8-1-4v-11l4-11 7-7z" fill="#F9FDFA"/>
<path transform="translate(529,340)" d="m0 0 5 5 12 16 6 10 8 17 6 20 3 15 1 16-1 1-1 9-8 3-10 8-3 3-1 3-4-1-1-1-1-9v-10l2-6 2-23 1-24h-2l-3-16-6-15-6-9-1-4z" fill="#08B00C"/>
<path transform="translate(706,463)" d="m0 0 8 6 11 11 9 11 10 13 9 14 9 15 6 13 2 6h-9l-2-1h-7l-6 2-4-7v-2h-2l-10-13-6-6v-2h-2l-7-8-5-6 2-10v-17l-4-13-2-3z" fill="#96D906"/>
<path transform="translate(710,510)" d="m0 0 7 6 5 5v2h2l7 8 9 11v2h2l4 7v3l-6 4-1 2h-2l-2 6-6 15-2 1-3-16-1-6-3-1-3-3-9-3h-20l1-5 9-13 8-15z" fill="#08AF0D"/>
<path transform="translate(394,438)" d="m0 0h3l6 11 7 15 7 21 5 27v31h-2l-9-15-8-20-6-25-2-22z" fill="#08AC10"/>
<path transform="translate(432,276)" d="m0 0h11l6 3 7 8 2 6v8l-4 9-6 5-5 2h-11l-8-4-5-6-2-5v-9l4-9 7-6z" fill="#F6FCF8"/>
<path transform="translate(384,491)" d="m0 0h1l3 24 4 15 7 20v2l-3 1h-20l-10 3-5 2-3-8-6-7-4-2v-3l19-2 10-2-1-7-4-15v-7l3-5v-3l5-2v-2z" fill="#018F2B"/>
<path transform="translate(542,481)" d="m0 0 18 4h19l17-2h6l-3 5-5 4-9 12-7 14-4-2-11-5-6-2v-2l-17-1-1-5z" fill="#08AF0D"/>
<path transform="translate(387,251)" d="m0 0 2 1-7 8-5 7-5 10-18 5v2l4 3 12 3 1 2-5 1h-19l-13-2v5l4 4-1 5-5-1-3-3 1-6-9 2-6 4-5 8-3 14h-4v-10l4-13 8-9 12-7 16-8 18-10 9-6 7-3z" fill="#F7FCF8"/>
<path transform="translate(436,242)" d="m0 0h22l10 3 10 5 16 13 10 9 8 7 12 11 8 7 32 32 7 8 2 4 2 1-2 2-15-16-23-23-8-7-11-10-8-7-15-13-14-12-9-6-6-2h-20l-15 4-16 8-12 9-13 12-7 5v-3l7-10 8-10 9-8 14-8 12-4z" fill="#E0F9DE"/>
<path transform="translate(609,582)" d="m0 0 5 5 12 14 9 12v1l-13 1v12l-3 5h-4l-3-4-4 2-5 5-7 1-7-6v-2h-2l-7-8-3 4v-8l1-6 16 8 3 3 2 3 7-10 3-8z" fill="#D9F7D7"/>
<path transform="translate(512,740)" d="m0 0h16v1l-37 4-82 5-57 3-48 1-32-2-51-8-1-2 17 1 55 4 22 1h58l59-3 61-4z" fill="#D9F7D7"/>
<path transform="translate(633,481)" d="m0 0 3 1-12 8-11 10-10 13-6 12-5 12-19 8-6 5-5 5-5 4-9 6-7 9-5 9h-1l1-9 6-12 4-5 11-8 4-5 1-3-5-2-8-4-8-1-10 2-6 4-5 3 2-5 8-7 9-4h11l10 3 10 6 7 1 10-3 10-21 10-13 8-8 14-9z" fill="#F6FCF7"/>
<path transform="translate(181,577)" d="m0 0h32l2 1 1 3v20l-3 2h-32l-3-3v-20z" fill="#F4FCF6"/>
<path transform="translate(552,246)" d="m0 0 21 2 4 2-8 1-3 1-1 3-14 8-10 8-6 5-1 2-4-1-4-3v-2l-4-2-7-6v-2h-2l-1-5 14-7 12-3z" fill="#08AD0F"/>
<path transform="translate(620,447)" d="m0 0 20 1 19 4 14 6 2 3-14-3h-37l-32 3-24 5-10 3 5-5 12-7 20-7 11-2z" fill="#F7FDF9"/>
<path transform="translate(375,498)" d="m0 0v3l-4 10-8 7-14 8-15 5h-8l-6-5-6-9-6-5-7-2-9 1-6 3-7 8-4 10h-1v-14l4-9 9-6 2-1h14l10 5 9 9 4 5 5 3 9 1 10-4 4-2 2-4 15-14z" fill="#F6FCF7"/>
<path transform="translate(617,423)" d="m0 0 4 1 1-1 13 1 21 5 7 3 2 5 2 1-14-1h-29l-19 3h-5l3-1-3-4-4-2-2-3 5-3z" fill="#08AD0F"/>
<path transform="translate(553,605)" d="m0 0h1v41l-4 4-3 2h-3l-8-12-2-1-6-11-5-14 1-7 2 3 9 16v2h3l2-5 6-11z" fill="#D8F7D7"/>
<path transform="translate(777,624)" d="m0 0 2 1 12 36 1 7h-28l-1-2 13-40z" fill="#034128"/>
<path transform="translate(547,284)" d="m0 0h28l18 4 2 2-15 5-13 8-4 4-4-2-8-7-7-7-2-4z" fill="#09AB11"/>
<path transform="translate(522,213)" d="m0 0h21l-3 2-4 2-2 2-12 3-16 8-9 6-4 5h-3l-4-2-1-2-7-3 5-6 13-8 15-5z" fill="#97D906"/>
<path transform="translate(375,506)" d="m0 0h1l3 21 4 13 1 4v7l-7 1-9 3-5 3h-2l-3-8-6-7-4-2v-3l19-2 10-2-1-7-4-16z" fill="#09B00C"/>
<path transform="translate(431,285)" d="m0 0h8l3 4 5 2 1 2v9l-5 6-4 2h-7l-7-4-2-4v-9l4-6z" fill="#023D29"/>
<path transform="translate(373,412)" d="m0 0 5 4 5 9 2 10v8l-2 5-9 7h-2l-1-4v-28l1-10z" fill="#018F2B"/>
<path transform="translate(351,392)" d="m0 0 4 1 7 10 2 9v9l-3 5-10 8h-1v-41z" fill="#018F2B"/>
<path transform="translate(436,242)" d="m0 0h22l6 2v1l-20 1-12 3-12 5-16 10-7 5-7 8-6 3 2-5 11-13 11-9 16-8z" fill="#F5FCF7"/>
<path transform="translate(552,246)" d="m0 0 21 2 4 2-8 1-3 2-21 4-14 5-3-1-4-5-2-1 1-4 15-4z" fill="#98DA06"/>
<path transform="translate(529,219)" d="m0 0h5l-5 5-14 11-14 15-6-4-4-4 7-8 13-8 14-6z" fill="#07AB11"/>
<path transform="translate(574,346)" d="m0 0 5 5 7 10 3 11 3 9 2 11v24l-3 3-5-30-7-26-5-14z" fill="#08B00C"/>
<path transform="translate(633,481)" d="m0 0 3 1-12 8-11 10-10 13-6 12-5 12-19 8-6 5-5 5-5 4-9 6-7 9-5 9h-1l1-9 1-3 4-3 7-6 8-6 3-1 5-5 8-7 9-4 7-2v-2l4-1 1-9-1-2 7-13 9-11 7-7 14-9z" fill="#DBF8D9"/>
<path transform="translate(238,744)" d="m0 0h14l40 3 22 1 46 1-2 2-22 1h-48l-20-2-30-5z" fill="#F7FCF8"/>
<path transform="translate(490,579)" d="m0 0 3 1v95l-4 13-3 4 2-10 1-10v-79z" fill="#D9F7D7"/>
<path transform="translate(541,533)" d="m0 0 11 2 10 6-1 4-2 2-4-1-8-3h-10l-12 5-6 3-3-1 3-7 10-7 5-2z" fill="#96D906"/>
<path transform="translate(265,543)" d="m0 0 3 1 5 5v2h2l1 4-4 5-3 7-2 11-3 1-3-5-2-7-1-10 3-9z" fill="#98DA06"/>
<path transform="translate(767,505)" d="m0 0h31l2 3v6l-12 4-7-2h-11l-5-9z" fill="#0BAC11"/>
<path transform="translate(398,303)" d="m0 0h8l4 10 5 7-15-3h-27l5-5 12-6z" fill="#08AD0F"/>
<path transform="translate(383,241)" d="m0 0 13 1v2l-17 4-12 6-12 9-7 4-3-1 9-12 9-7 8-4z" fill="#F3FBF5"/>
<path transform="translate(598,548)" d="m0 0h8l-4 3-10 6-7 8-4 11-1 17-3-4-2-6v-15l4-8 4-5 11-6z" fill="#F5FCF6"/>
<path transform="translate(464,244)" d="m0 0 9 3 11 8 2 4 4 4h-3l-13-11-10-4h-20l-15 4-16 8-12 9-13 12-7 5v-3l4-4h2l1-2 7-6 5-5 10-7 12-7 10-4 12-3z" fill="#DCF9D9"/>
<path transform="translate(351,282)" d="m0 0 7 5 12 3 1 2-5 1h-19l-13-2v5l4 4-1 5-5-1-3-3 1-6-9 2-6 4-5 8-3 14h-4l3-12 3-9 11-7 4-2h6l3-4 11 1 13 1v-2l-5-3z" fill="#DBF8D8"/>
<path transform="translate(375,498)" d="m0 0v3l-4 10-8 7-14 8-15 5h-8l-6-5-4-8h2l2 4 6 6h11l3-3 10-4 4-2 2-4 15-14z" fill="#DBF6DC"/>
<path transform="translate(708,393)" d="m0 0 2 1-7 3h-2l-1 4-11 7-7 5-2-1v-2l-4-1-2-4 11-7 15-4z" fill="#98DA06"/>
<path transform="translate(725,420)" d="m0 0h12l5 1v1h-6v3l-16 5-11 5-6-6v-2l8-4z" fill="#98DA06"/>
<path transform="translate(522,213)" d="m0 0h21l-3 2-24 4-23 8-12 7-3-1 9-8 14-7 14-4z" fill="#E2F9E1"/>
<path transform="translate(328,299)" d="m0 0 5 5h5l1 10-2 4-2 1h-7l-5-4-1-3v-7l4-5z" fill="#023F29"/>
<path transform="translate(603,326)" d="m0 0h18l-3 2-5 4-12 5-5 3-5-4h-3v-3l-2-2 11-4z" fill="#98DA06"/>
<path transform="translate(676,368)" d="m0 0 4 1-8 7-14 9-3 1-2-2-4-1v5h-2l-1-3 7-8 11-6z" fill="#90D706"/>
<path transform="translate(548,284)" d="m0 0h27l18 4v1h-14l-18 4-4 1-7-6v-2h-2z" fill="#98DA06"/>
<path transform="translate(642,345)" d="m0 0h4l-2 4-9 10-6 3-7-1-4 1v-3l7-7 10-5z" fill="#8CD507"/>
<path transform="translate(670,376)" d="m0 0h2l-2 5-9 17-5-2-7-6v-7h5l2 2 10-6z" fill="#0AAF0D"/>
<path transform="translate(220,742)" d="m0 0 17 1 5 2 33 5 13 1h70v1l-6 1-48 1-32-2-51-8z" fill="#DCF9D9"/>
<path transform="translate(609,582)" d="m0 0 5 5 12 14 4 5v5h-2v-2h-2v2h-2l-1-2-3-1-3-5-1-4-4-2-1 6h-1z" fill="#B7E7C4"/>
<path transform="translate(729,450)" d="m0 0h17l12 4 2 2-21 3h-6l-5-5-1-3z" fill="#98DA06"/>
<path transform="translate(715,470)" d="m0 0 4 2 6 5 2 4 5 5 8 9 3 5 8 11 7 11v2h2l3 7 4 8 3 7 5 3v3h-5l-4-9-10-19-11-17-12-16-13-15z" fill="#DBF8D9"/>
<path transform="translate(327,384)" d="m0 0 3 2v2h2l8 10-1 4-10 8h-1l-1-7z" fill="#EFFAF0"/>
<path transform="translate(613,389)" d="m0 0 5 1 4 5v5l-4 5h-7l-4-5v-6l3-4z" fill="#03912A"/>
<path transform="translate(614,330)" d="m0 0 2 1-4 2-2 5-5 7-3 5-4-2-7-7-3-5 2-2h2l5 5 6-4z" fill="#09A913"/>
<path transform="translate(636,357)" d="m0 0 1 2-7 17h-2v-2l-4-2-9-9v-2l8-1 6 1z" fill="#09AC10"/>
<path transform="translate(383,246)" d="m0 0h4v2l-11 7-4 5-5 3-13 1 5-5 10-7 10-5z" fill="#95D906"/>
<path transform="translate(490,579)" d="m0 0 3 1v45l-3 2-1-1v-33z" fill="#DBF8D8"/>
<path transform="translate(350,410)" d="m0 0 7 6 6 7-4 5-9 6z" fill="#F2FBF3"/>
<path transform="translate(371,431)" d="m0 0 5 5 8 9-1 3-9 7h-2l-1-4z" fill="#EEFAF0"/>
<path transform="translate(628,455)" d="m0 0h34l9 2 4 4-14-3h-37l-22 2h-10l3-2 3-1z" fill="#DCF9D9"/>
<path transform="translate(783,539)" d="m0 0 8 1 10 4 4 4v2l-2 1h-12l-4-6-3-2z" fill="#08AE0E"/>
<path transform="translate(622,395)" d="m0 0 2 1 2 9 6 1 7 5 3 1 3 3 8 5v2l4 2 6 4 4 4-6-2-17-13-15-10-3 6-3 8h-1z" fill="#DCF9D9"/>
<path transform="translate(552,246)" d="m0 0 21 2 4 2h-23l-17 2-10 2h-5l1-3 15-4z" fill="#D8F7D7"/>
<path transform="translate(749,522)" d="m0 0 7 1 2 3-1 7-5 3-5-1-2-3v-6z" fill="#0DB00D"/>
<path transform="translate(586,537)" d="m0 0m-2 1 2 1-14 7-5 4-5 5-5 4-9 6-7 9-5 9h-1l1-9 1-3 4-3 7-6 8-6 3-1 5-5 8-7 9-4z" fill="#DCF9D9"/>
<path transform="translate(464,244)" d="m0 0 9 3 11 8 2 4 4 4h-3l-13-11-10-4-20-1 1-2z" fill="#DDF8DC"/>
<path transform="translate(522,428)" d="m0 0 2 4-1 6-6 8-7 5-7 2h-9l3-2 11-4 8-6 3-6h2z" fill="#D4F5D5"/>
<path transform="translate(541,310)" d="m0 0 4 2 8 6 11 11 7 8 2 4 2 1-2 2-15-16-17-17z" fill="#DCF8DA"/>
<path transform="translate(452,337)" d="m0 0 10 2 13 7 7 5-4 1h-8l2-1v-2l-4-2-9-5-7-4z" fill="#08B00C"/>
<path transform="translate(729,426)" d="m0 0 4 1-11 7-8 6-5-5 8-5z" fill="#05A318"/>
<path transform="translate(700,400)" d="m0 0v3l-10 13-4 1-4-4 7-6z" fill="#05A318"/>
<path transform="translate(480,355)" d="m0 0 5 1h3l7 6 4 6-5-1-11-4-2-4-3-3z" fill="#029125"/>
<path transform="translate(330,384)" d="m0 0h3l6 2 3 4v8l-2 2-6-8-2-4h-2l-1-3z" fill="#018C2A"/>
<path transform="translate(548,284)" d="m0 0h27l18 4v1l-17-1-4-1-24-1z" fill="#D8F7D5"/>
<path transform="translate(394,438)" d="m0 0h3l5 8-1 3-4-2v28h-1l-2-30z" fill="#018F2C"/>
<path transform="translate(179,640)" d="m0 0h1l1 77-2 2-1-4z" fill="#DAF8D8"/>
<path transform="translate(708,393)" d="m0 0 2 1-7 3-15 4-8 3-3-1 8-5 15-4z" fill="#D7F6D6"/>
<path transform="translate(324,293)" d="m0 0 5 1v1l-10 3-6 5-4 9-2 11h-4l3-12 3-9 11-7z" fill="#DCF9D9"/>
<path transform="translate(697,537)" d="m0 0 1 2-4 6-3 6h20l9 4 3 5-3-1-3-3-9-3h-20l1-5z" fill="#018F2C"/>
<path transform="translate(484,256)" d="m0 0 4 2 14 12 12 11 1 2-5-2-10-9-2-2-10-8v-2l-4-2z" fill="#EFFAF1"/>
<path transform="translate(603,326)" d="m0 0h18l-3 2-16 2-10 2h-6l4-3z" fill="#D9F8D7"/>
<path transform="translate(756,455)" d="m0 0 7 1v1l-21 5-7 1-3-3 1-2 13-1h10z" fill="#039A21"/>
<path transform="translate(265,543)" d="m0 0 3 1-1 4-5 10-2 8h-1l-1-9 3-9z" fill="#E1F9DF"/>
<path transform="translate(544,531)" d="m0 0 6 2 2 2-11-1-10 2-6 4-5 3 2-5 6-6 3 1z" fill="#DCF9D9"/>
<path transform="translate(749,480)" d="m0 0 7 1 11 5 1 3-9-1-7-3z" fill="#96D906"/>
<path transform="translate(725,420)" d="m0 0h12l5 1v1l-21 2-13 3-3 1v-2l9-4z" fill="#D8F7D2"/>
<path transform="translate(676,368)" d="m0 0 4 1-10 4-16 7-4 1 5-5 9-5z" fill="#D6F6D3"/>
<path transform="translate(304,333)" d="m0 0h5l1 21-3-4-3-10z" fill="#D7F6D6"/>
<path transform="translate(613,494)" d="m0 0 2 1-5 5-6 8-7 11-1 4h-3l2-6 7-11z" fill="#F0FBF2"/>
<path transform="translate(581,460)" d="m0 0h11v1l-24 5-10 3 5-5 5-3 6 1z" fill="#DCF8DA"/>
<path transform="translate(642,345)" d="m0 0 4 1-9 4-12 6-6 4 2-4 7-6 10-4z" fill="#D5F6D3"/>
<path transform="translate(369,503)" d="m0 0 1 4-3 6-5 3-4 3-3-1 3-3 2-4 8-7z" fill="#F8FDF9"/>
<path transform="translate(400,490)" d="m0 0 5 2 2 1-1 9-3 4-3-11z" fill="#98DA06"/>
<path transform="translate(486,465)" d="m0 0 10 1-1 6-7 24h-1l1-10 4-16-1-2-5-2z" fill="#018F2C"/>
<path transform="translate(369,250)" d="m0 0 3 1-12 8-6 5-6 3-3-1 5-5 5-2 7-4 2-3z" fill="#DAF7D8"/>
<path transform="translate(405,262)" d="m0 0m-1 1m-1 1m-1 1v3l-15 14-7 4 2-5 5-2 1-2 7-6 5-5z" fill="#DBF8D8"/>
<path transform="translate(578,610)" d="m0 0 10 5v3l3 1-2 2-2 1-4-1-4-5z" fill="#BCE9C7"/>
<path transform="translate(767,505)" d="m0 0 9 1 9 7-1 2-10-5-5-2-3 1-1-3z" fill="#98DA06"/>
<path transform="translate(192,742)" d="m0 0h21l-3 2h-11l4 4 5 3-2 1-14-7z" fill="#018F2C"/>
<path transform="translate(548,562)" d="m0 0v3l-7 9-5 9h-1l1-9 1-3 4-3z" fill="#D9F7D7"/>
<path transform="translate(801,543)" d="m0 0 4 2 4 5v2l-18 1-4-4-2-5 4 2 2 4h14l-2-5h-2z" fill="#01902A"/>
<path transform="translate(797,505)" d="m0 0 3 3v6l-9 3v-3l4-2-1-4-2-2z" fill="#0C9528"/>
<path transform="translate(724,563)" d="m0 0 3 4 2 7 4-8 1 2-5 13-2 1-3-16z" fill="#018F2C"/>
<path transform="translate(598,548)" d="m0 0h8l-4 3-10 6-7 8-1-3 4-6 5-3z" fill="#DBF8D8"/>
<path transform="translate(769,507)" d="m0 0 5 2 5 4-2 2-7-1-4-4z" fill="#0DB00D"/>
<path transform="translate(646,471)" d="m0 0 8 1 3 1v2l-13 2h-6v-2l4-2 4-1z" fill="#08AF0D"/>
<path transform="translate(510,445)" d="m0 0 4 2-4 4-7 2h-9l3-2 11-4z" fill="#D1F3D3"/>
<path transform="translate(316,518)" d="m0 0h2l2 4 6 6h11l3-1v2l-6 2h-8l-6-5z" fill="#DCF9D9"/>
<path transform="translate(670,376)" d="m0 0h2l-2 5-9 17-5-2 4-1 2-6 7-10z" fill="#018F2B"/>
<path transform="translate(586,268)" d="m0 0 7 1v6l-10-1v-5z" fill="#F5FCF7"/>
<path transform="translate(528,295)" d="m0 0 4 2 17 17h-3l-3-3-5-3-3-5-7-6z" fill="#F6FDF6"/>
<path transform="translate(390,242)" d="m0 0h6v2l-17 4-4 2-3-1 6-4z" fill="#DAF8D8"/>
<path transform="translate(375,498)" d="m0 0v3l-4 10-8 7-2-1 6-5 3-10z" fill="#D6F6D2"/>
<path transform="translate(610,390)" d="m0 0 2 2-2 1v7l3 3 4-1 1-2 3 1-3 4h-7l-4-5v-6z" fill="#09B10C"/>
<path transform="translate(511,215)" d="m0 0h6v2l-12 4h-6l2-3z" fill="#F6FCF7"/>
<path transform="translate(748,526)" d="m0 0 2 1v3l3 1-1 5-5-1-2-3 1-3z" fill="#039822"/>
<path transform="translate(284,512)" d="m0 0 3 1-7 7-5 12h-1v-8l4-6h2l2-4z" fill="#DCF9D9"/>
<path transform="translate(597,521)" d="m0 0 1 2-6 14-6 2 2-4 4-1 1-9-1-2z" fill="#DDF8DA"/>
<path transform="translate(331,297)" d="m0 0 6 2 1 5-5 1-3-3z" fill="#EDFBED"/>
<path transform="translate(582,567)" d="m0 0 1 2-2 7-1 17-3-4-1-4h2l2-15z" fill="#DCF8DA"/>
<path transform="translate(753,486)" d="m0 0 9 2h5l1-2 4 4-15 1-4-3z" fill="#029526"/>
<path transform="translate(598,457)" d="m0 0h17l-4 2-9 1h-10l3-2z" fill="#DCF9D9"/>
<path transform="translate(295,507)" d="m0 0 12 1 3 4-9-2-9 1-5 1 3-3z" fill="#DCF9D9"/>
<path transform="translate(670,434)" d="m0 0 7 2v2l8 4 3 5-5-2v-2l-5-2-8-6z" fill="#D7F6CD"/>
<path transform="translate(529,249)" d="m0 0h7l-4 4-10 1 1-3z" fill="#E6FAE5"/>
<path transform="translate(487,225)" d="m0 0 2 1 1 3-9 5-3-1z" fill="#D7F6D3"/>
<path transform="translate(499,270)" d="m0 0 4 1 10 9 2 3-5-2-11-10z" fill="#F5FCF7"/>
<path transform="translate(220,742)" d="m0 0 17 1 3 3-11-1-8-1z" fill="#D5F5D5"/>
<path transform="translate(357,547)" d="m0 0 4 3 2 4 7-2h6v1l-10 3-5 2-3-8z" fill="#018F2C"/>
<path transform="translate(616,363)" d="m0 0 4 2 5 4v2h6l-1 5h-2v-2l-4-2-8-8z" fill="#018F2C"/>
<path transform="translate(367,275)" d="m0 0h6l-1 2-18 5-2-1 7-4 7-1z" fill="#DAF8D8"/>
<path transform="translate(629,608)" d="m0 0 4 2 2 4-7 1-2-2v-4h2z" fill="#D5F5D5"/>
<path transform="translate(353,520)" d="m0 0m-1 1m-4 1 3 1v2l-7 3-4-1v-2z" fill="#D7F6D6"/>
<path transform="translate(474,351)" d="m0 0 10 1 4 4-1 2-4-2h-2v-2l-7-1z" fill="#026E27"/>
<path transform="translate(337,304)" d="m0 0h1l1 10-2 4-5 1 3-4 2-9-2-1z" fill="#039B20"/>
<path transform="translate(375,258)" d="m0 0v3l-10 5-3 1v2l-3-1 5-4 6-4z" fill="#D8F7D7"/>
<path transform="translate(528,532)" d="m0 0 2 1-1 4-9 6 2-5z" fill="#D9F6D9"/>
<path transform="translate(660,455)" d="m0 0 9 1 6 4-2 1-14-4z" fill="#D9F6D8"/>
<path transform="translate(304,333)" d="m0 0h2l2 7v6l-3-2-1-4z" fill="#F7FCF8"/>
<path transform="translate(582,289)" d="m0 0h13l-4 2-11 3z" fill="#06932E"/>
<path transform="translate(765,775)" d="m0 0 3 1-15 11-2-1 11-9z" fill="#018F2C"/>
<path transform="translate(755,437)" d="m0 0 4 2-2 2 1 2-8-1-1-2h2v-2z" fill="#F4FCF6"/>
<path transform="translate(605,379)" d="m0 0 4 2v2l4 2 7 4-1 3-11-8z" fill="#DAF8D8"/>
<path transform="translate(491,359)" d="m0 0 5 4 3 5-5-1-4-3z" fill="#09B10C"/>
<path transform="translate(578,612)" d="m0 0 2 1 1 4 5 5-3 1-4-3-2 4v-8z" fill="#D1F4D3"/>
<path transform="translate(552,535)" d="m0 0 5 1 7 5v5l-4 1 2-6-5-2z" fill="#DCF9D9"/>
<path transform="translate(574,346)" d="m0 0 5 5 6 8-1 2-9-10z" fill="#029625"/>
<path transform="translate(490,675)" d="m0 0 2 3-3 10-3 4 2-10z" fill="#CAF0CF"/>
<path transform="translate(593,524)" d="m0 0 1 3-2 7-5 1 4-10z" fill="#F4FCF6"/>
<path transform="translate(582,506)" d="m0 0 1 2-5 10-4-2-2-2h5z" fill="#018F2C"/>
<path transform="translate(606,308)" d="m0 0 3 1 1 1v-1h5v3l-4 2-6-2z" fill="#F6FDF7"/>
<path transform="translate(530,213)" d="m0 0h13l-3 2-12 1z" fill="#D9F7D7"/>
<path transform="translate(801,543)" d="m0 0 4 2 4 5v2h-7l1-2h2l-2-5h-2z" fill="#018F2C"/>
<path transform="translate(783,539)" d="m0 0 7 1v2l2 1-7 1z" fill="#98DA06"/>
<path transform="translate(529,340)" d="m0 0h1l1 12 1 4-4-4-1-4z" fill="#018F2C"/>
<path transform="translate(769,513)" d="m0 0 8 1 4-1 4 2-4 1h-11z" fill="#029427"/>
<path transform="translate(540,269)" d="m0 0 2 1-7 6-1 2-4-1-1-2 6-2z" fill="#018F2C"/>
<path transform="translate(642,473)" d="m0 0h7v2h-2v2h-9v-2z" fill="#028F28"/>
</svg>
